<svg id="Capa_1" data-name="Capa 1" xmlns="http://www.w3.org/2000/svg" viewBox="0 0 39.3 39.8"><defs><style>.cls-1{fill:#a3a3a3;}.cls-2{fill:#0086f9;}.cls-3{fill:#0037ae;}</style></defs><path class="cls-1" d="M33.9,31.7l-4.8-4.8-1.6-1.6a9.4,9.4,0,0,1-7.9,4.3,9.6,9.6,0,0,1-8.2-4.7l4.8-4.8H1V35.6l4-4.1a18.5,18.5,0,0,0,29,.2S34,31.8,33.9,31.7Z"/><path class="cls-2" d="M4,1.3l4.1,4A18.3,18.3,0,0,0,1,19.9v.2h9.1a9.8,9.8,0,0,1,4.7-8.2l4.7,4.6V1.3H4Z"/><path class="cls-3" d="M34.3,8.6A18.5,18.5,0,0,0,19.5,1.3v9.3a9.6,9.6,0,0,1,8.2,4.7L23.1,20H38.4V4.5Z"/></svg>